<svg xmlns="http://www.w3.org/2000/svg" width="50" height="50" viewBox="0 0 50 50" fill="none">
  <path d="M42.6777 42.6777C40.3562 44.9991 37.6002 46.8406 34.5671 48.097C31.5339 49.3534 28.283 50 25 50C21.717 50 18.4661 49.3534 15.4329 48.097C12.3998 46.8406 9.64379 44.9991 7.32233 42.6777C5.00086 40.3562 3.15938 37.6002 1.90301 34.5671C0.646643 31.5339 -4.33777e-07 28.283 0 25C4.33777e-07 21.7169 0.646645 18.4661 1.90301 15.4329C3.15938 12.3998 5.00087 9.64379 7.32233 7.32233L25 25L42.6777 42.6777Z" fill="#191414"/>
  <path d="M7.32233 7.32233C12.0107 2.63392 18.3696 -7.90669e-08 25 0C31.6304 7.90669e-08 37.9893 2.63392 42.6777 7.32233C47.3661 12.0107 50 18.3696 50 25C50 31.6304 47.3661 37.9893 42.6777 42.6777L25 25L7.32233 7.32233Z" fill="#6D94F8"/>
</svg>